<svg width="16" height="16" viewBox="0 0 16 16" fill="none" xmlns="http://www.w3.org/2000/svg">
<g id="Frame 693">
<g id="Vector">
<path d="M2.34313 3.75736C1.95261 3.36684 1.95261 2.73367 2.34313 2.34315C2.73366 1.95262 3.36682 1.95262 3.75735 2.34315L13.6568 12.2426C14.0474 12.6332 14.0474 13.2663 13.6568 13.6569C13.2663 14.0474 12.6332 14.0474 12.2426 13.6569L2.34313 3.75736Z" fill="black"/>
<path d="M12.2426 2.34315C12.6332 1.95262 13.2663 1.95262 13.6568 2.34315C14.0474 2.73367 14.0474 3.36684 13.6568 3.75736L3.75735 13.6569C3.36682 14.0474 2.73366 14.0474 2.34313 13.6569C1.95261 13.2663 1.95261 12.6332 2.34313 12.2426L12.2426 2.34315Z" fill="black"/>
</g>
</g>
</svg>
